<?xml version="1.0" encoding="utf-8"?>
<svg xmlns="http://www.w3.org/2000/svg" fill="none" height="39" viewBox="0 0 44 39" width="44">
<g clip-path="url(#clip0_527_604)">
<path d="M28.6041 4.68162C33.261 4.02811 36.618 6.37155 37.5332 10.7981C37.5933 11.0891 37.9814 11.4107 38.2922 11.5401C39.998 12.2346 41.454 13.4208 42.4716 14.9449C43.4893 16.469 44.0217 18.2609 44 20.0885C43.9553 24.8758 40.0506 28.8581 35.2082 29.0453C34.5712 29.0708 34.0062 28.9211 33.953 28.2046C33.9032 27.4353 34.451 27.2447 35.143 27.2107C38.7404 27.0286 41.6973 24.3533 42.1008 20.9462C42.5353 17.2821 40.4077 14.0248 36.8395 12.9969C36.0359 12.7637 35.7577 12.3774 35.732 11.5622C35.6186 8.0649 32.2341 5.63466 28.8136 6.54685C27.6116 6.8685 27.488 6.80893 26.9969 5.69592C26.4407 4.39101 25.461 3.3074 24.2131 2.61685C22.9652 1.9263 21.5204 1.66831 20.1077 1.88378C17.3483 2.2735 15.1589 4.50633 14.7588 7.34161C14.7228 7.59518 14.6936 7.85216 14.6764 8.10234C14.63 8.84434 14.2162 9.19662 13.4916 9.11153C12.5929 9.01749 11.6844 9.11394 10.8263 9.39447C9.96814 9.67501 9.18001 10.1332 8.5142 10.7387C7.8484 11.3442 7.32013 12.0831 6.96446 12.9064C6.6088 13.7296 6.43387 14.6185 6.45129 15.5139C6.45129 16.1249 6.15251 16.4295 5.61504 16.6422C2.86762 17.7348 1.44411 20.1684 1.97127 22.8284C2.49843 25.4884 4.74273 27.2226 7.68591 27.2226C8.17358 27.2226 8.65953 27.2226 9.14548 27.2226C9.72244 27.2396 10.1483 27.5783 10.0607 28.1076C10.0023 28.4479 9.55759 28.9585 9.24679 28.9959C5.74898 29.3193 2.155 28.4854 0.503111 24.2818C-0.870601 20.7896 0.640481 17.1919 4.16749 15.2246C4.37698 15.1071 4.62253 14.8383 4.63799 14.6221C4.91616 10.9648 8.15469 7.33991 12.7085 7.2429C12.7571 7.22628 12.8037 7.2046 12.8476 7.17823C13.6684 3.15166 16.045 0.508684 20.2914 0.0491847C24.04 -0.347346 26.7822 1.41917 28.6041 4.68162Z" fill="#1971F5"/>
<path d="M16.6545 19.5901C17.0735 19.8403 17.4667 20.0496 17.8359 20.2981C18.9778 21.0622 19.1289 21.0044 19.3814 19.6531C19.4123 19.4829 19.4294 19.3127 19.4552 19.1425C19.5617 18.4924 19.9051 18.1351 20.6125 18.1504C21.5278 18.1691 22.4447 18.1742 23.36 18.1504C24.1052 18.1282 24.4813 18.4907 24.562 19.1851C24.8144 21.3039 25.2128 21.0571 26.571 20.0258C27.1789 19.5646 27.7026 19.6106 28.2281 20.1671C28.8153 20.7865 29.4301 21.3907 30.0482 21.971C30.6166 22.4969 30.608 23.0023 30.1839 23.6184C29.1261 25.162 29.1382 25.1926 31.0287 25.5875C31.7705 25.744 32.1208 26.115 32.1037 26.8672C32.083 27.7182 32.0934 28.5691 32.1037 29.42C32.1037 30.1144 31.8186 30.5092 31.0888 30.6539C29.1416 31.0402 29.1296 31.0725 30.2079 32.6654C30.6355 33.2985 30.5857 33.7989 30.0362 34.3145C29.4112 34.8966 28.8067 35.5058 28.2143 36.1185C27.7181 36.6291 27.2064 36.721 26.6277 36.2683C26.5161 36.1815 26.3924 36.1066 26.2843 36.0266C25.017 35.1586 24.8968 35.2114 24.6204 36.7448C24.3903 38.0297 24.2769 38.1165 22.941 38.1182C22.2249 38.1182 21.5072 38.0875 20.7946 38.1182C19.9858 38.1607 19.5514 37.8169 19.4552 37.029C19.2148 35.0463 18.8697 35.1246 17.5097 36.1968C16.8417 36.7226 16.2836 36.6342 15.7221 36.0266C15.1606 35.419 14.5648 34.8472 13.9638 34.2788C13.4486 33.787 13.4006 33.3019 13.7921 32.6995C14.8773 31.0691 14.8653 31.0436 12.8871 30.6419C12.2003 30.5024 11.917 30.1161 11.9187 29.4609C11.9187 28.6099 11.9393 27.759 11.9187 26.9081C11.8929 26.1133 12.2466 25.6708 13.04 25.5926C14.8447 25.4139 15.0524 25.1348 13.8693 23.649C13.3748 23.0279 13.4023 22.4867 14.0033 21.9472C14.6335 21.3703 15.2053 20.7389 15.8337 20.1534C16.0925 19.9453 16.3669 19.757 16.6545 19.5901ZM22.85 36.2427C23.0372 35.1706 23.1196 34.2941 24.3662 33.7785C25.6455 33.2509 26.3547 33.8635 27.1617 34.4047C27.6065 34.0235 28.01 33.6797 28.4169 33.3292C27.8383 32.4085 27.184 31.7532 27.7078 30.4513C28.247 29.1086 29.3116 29.2311 30.1993 28.9061V27.2859C29.1313 27.1157 28.2315 27.0136 27.6957 25.7542C27.1514 24.4676 27.8675 23.8022 28.35 23.0313L27.172 21.823C26.3358 22.4492 25.6266 22.9887 24.3439 22.4782C23.0372 21.9574 23.0835 20.9669 22.8191 19.9884H21.2084C20.9491 20.972 20.9783 21.9455 19.6853 22.4816C18.3923 23.0177 17.6625 22.3369 16.785 21.811L15.6071 22.9275C16.16 23.8107 16.8657 24.4778 16.3334 25.7627C15.8011 27.0476 14.8292 27.1242 13.8127 27.3097V28.9367C14.8172 29.1869 15.7616 29.192 16.3214 30.4684C16.9052 31.7958 16.1136 32.4629 15.6844 33.239L16.7576 34.529C17.6762 33.8193 18.4026 33.3002 19.6767 33.7904C20.9869 34.3009 20.9543 35.2812 21.2135 36.2529L22.85 36.2427Z" fill="#1971F5"/>
<path d="M22.0841 23.6112C22.6888 23.6137 23.287 23.735 23.8441 23.9682C24.4011 24.2014 24.906 24.5418 25.3293 24.9697C25.7527 25.3977 26.0862 25.9046 26.3105 26.4612C26.5348 27.0178 26.6454 27.6129 26.636 28.2121C26.6266 28.8114 26.4973 29.4028 26.2556 29.9522C26.0139 30.5016 25.6646 30.9979 25.228 31.4126C24.7914 31.8272 24.2761 32.1519 23.7119 32.3678C23.1478 32.5836 22.5461 32.6864 21.9416 32.6702C19.4363 32.6378 17.3689 30.5309 17.4255 28.0633C17.4356 27.4675 17.5642 26.8796 17.8039 26.3332C18.0436 25.7867 18.3898 25.2926 18.8226 24.879C19.2553 24.4654 19.7662 24.1405 20.3259 23.923C20.8856 23.7054 21.4831 23.5995 22.0841 23.6112ZM22.0447 30.8322C22.767 30.8281 23.4582 30.5405 23.9671 30.0324C24.4759 29.5243 24.7608 28.837 24.7595 28.1211C24.7555 27.7635 24.6805 27.4102 24.5388 27.0814C24.3971 26.7525 24.1914 26.4545 23.9335 26.2044C23.6756 25.9543 23.3705 25.7571 23.0357 25.6238C22.7008 25.4906 22.3428 25.424 21.982 25.428C21.6212 25.4319 21.2647 25.5062 20.9329 25.6466C20.601 25.7871 20.3004 25.9909 20.0481 26.2465C19.7957 26.5022 19.5967 26.8045 19.4622 27.1364C19.3278 27.4682 19.2607 27.8231 19.2646 28.1807C19.2706 28.536 19.3474 28.8865 19.4905 29.2123C19.6337 29.5381 19.8403 29.8326 20.0987 30.079C20.357 30.3254 20.6619 30.5188 20.9958 30.648C21.3298 30.7773 21.6862 30.8398 22.0447 30.8322Z" fill="#1971F5"/>
</g>
<defs>
<clipPath id="clip0_527_604">
<rect fill="white" height="38.1333" width="44"/>
</clipPath>
</defs>
</svg>