<?xml version="1.0" encoding="utf-8"?>
<svg xmlns="http://www.w3.org/2000/svg" fill="none" height="45" viewBox="0 0 45 45" width="45">
<g clip-path="url(#clip0_14371_710)">
<path d="M7.5725 21.4808C7.21158 21.4808 6.93143 21.4945 6.65473 21.479C5.54618 21.4154 4.66105 20.6093 4.6559 19.5128C4.63012 14.9306 4.62668 10.3467 4.6559 5.7645C4.66277 4.57341 5.60805 3.78794 6.90222 3.78622C11.3124 3.77935 15.7242 3.78278 20.1344 3.78278C20.4437 3.78278 20.7548 3.78278 21.0934 3.78278C21.1896 1.91106 21.9665 0.603096 23.7986 0.113252C24.1251 0.0255957 24.4757 0.00668948 24.816 0.00497073C29.9721 -0.00190427 35.1264 -0.00362302 40.2825 0.00153323C42.5529 0.00325198 43.988 1.43325 43.9931 3.69341C44 6.84388 44 9.99435 43.9931 13.1465C43.988 15.4067 42.5529 16.8333 40.2825 16.8384C37.6477 16.8453 35.013 16.8401 32.3765 16.8401C32.0964 16.8401 31.818 16.8401 31.4433 16.8401C31.4433 17.5637 31.445 18.2134 31.4433 18.8631C31.4399 20.7331 30.7043 21.479 28.8618 21.4808C23.5923 21.4825 18.3211 21.4687 13.0517 21.5031C12.6289 21.5065 12.1253 21.73 11.8039 22.0153C10.9257 22.7922 10.1591 23.6928 9.27916 24.4679C8.98526 24.7258 8.42841 24.9268 8.09842 24.8203C7.8389 24.7378 7.63781 24.1534 7.59656 23.7736C7.51751 23.0431 7.5725 22.2989 7.5725 21.4808ZM32.5639 1.71685C30.0752 1.71685 27.5848 1.71513 25.0962 1.71685C23.4497 1.71856 22.8585 2.2995 22.8567 3.91856C22.855 6.92294 22.855 9.92731 22.8567 12.9317C22.8585 14.5181 23.4549 15.1248 25.0189 15.1248C30.0546 15.1265 35.0903 15.1265 40.1261 15.1248C41.6523 15.1248 42.2761 14.5112 42.2779 13.009C42.2813 9.94794 42.2813 6.88513 42.2779 3.82403C42.2761 2.35794 41.6488 1.722 40.2017 1.71856C37.6563 1.71169 35.1092 1.71685 32.5639 1.71685ZM29.7263 16.8401C28.0094 16.8401 26.3852 16.8487 24.7611 16.8384C22.6058 16.8247 21.1553 15.3809 21.1432 13.2308C21.1312 10.9689 21.1398 8.70872 21.1398 6.44685C21.1398 6.14435 21.1398 5.84356 21.1398 5.49638C20.7617 5.49638 20.5073 5.49638 20.2529 5.49638C15.9597 5.49638 11.6664 5.52044 7.37314 5.47747C6.50864 5.46888 6.33161 5.76966 6.33849 6.56372C6.37286 10.5993 6.37802 14.635 6.33505 18.6706C6.32646 19.5283 6.53957 19.8204 7.42985 19.7878C9.24822 19.7225 9.24994 19.7706 9.29462 21.5478C9.29634 21.6458 9.32212 21.742 9.37368 22.0926C9.81882 21.6011 10.1505 21.29 10.4169 20.929C11.1302 19.9597 12.0634 19.7276 13.2459 19.7414C18.426 19.8033 23.6061 19.7568 28.7862 19.7792C29.472 19.7826 29.8002 19.6159 29.7349 18.87C29.6834 18.2461 29.7263 17.6136 29.7263 16.8401Z" fill="#1B76FE"/>
<path d="M10.7193 38.4397C10.7193 39.8869 10.7227 41.2189 10.7175 42.5527C10.7124 43.8314 10.5457 43.9947 9.2876 43.9981C8.45748 43.9998 7.62735 44.0016 6.79723 43.9981C5.75571 43.9912 5.50478 43.7352 5.50306 42.6678C5.49963 41.1295 5.50134 39.5912 5.50134 38.0031C4.03531 38.0289 2.77208 37.6886 1.70305 36.7656C0.224988 35.4886 -0.367958 33.4141 0.231862 31.5458C0.833401 29.6672 2.50052 28.2887 4.45982 28.1719C5.88633 28.0859 7.32143 28.1616 8.74965 28.098C9.36151 28.0705 10.0026 27.9656 10.5697 27.7422C15.0246 25.977 19.4656 24.1723 23.9119 22.3831C25.2748 21.8348 25.6873 22.1116 25.6907 23.5828C25.6959 25.2139 25.7045 26.845 25.6856 28.4761C25.6804 28.9762 25.7577 29.2667 26.3129 29.4987C27.8442 30.1416 28.6898 31.3636 28.6881 33.0411C28.6847 34.7134 27.8614 35.9423 26.318 36.5851C25.7766 36.8103 25.677 37.0973 25.6856 37.6061C25.7096 39.2664 25.6993 40.9267 25.6924 42.5853C25.6856 43.9741 25.2851 44.2491 24.0202 43.742C19.8902 42.0834 15.7619 40.4214 11.6336 38.7628C11.3741 38.658 11.1111 38.5772 10.7193 38.4397ZM20.117 25.8894C19.9933 25.8825 19.9297 25.8602 19.885 25.8791C16.9684 27.0461 14.0501 28.2045 11.1507 29.4094C10.9341 29.4987 10.745 29.9284 10.7399 30.2034C10.7038 32.0648 10.7468 33.928 10.7055 35.7876C10.6918 36.3841 10.9221 36.6264 11.448 36.8344C15.3494 38.3812 19.2371 39.9608 23.1316 41.5266C23.3636 41.6194 23.6042 41.6881 23.9016 41.7878C23.9016 35.9217 23.9016 30.133 23.9016 24.2634C23.4203 24.4473 23.0336 24.633 22.6263 24.743C22.0007 24.9114 21.791 25.2689 21.8237 25.9203C21.8804 27.0341 21.8391 28.153 21.8391 29.2701C21.8391 30.903 21.8357 32.5358 21.8374 34.1686C21.8374 34.7048 21.6071 35.0658 21.0503 35.0967C20.4453 35.1311 20.1737 34.7564 20.1273 34.1961C20.105 33.9108 20.1187 33.6237 20.1187 33.3367C20.117 30.8566 20.117 28.3712 20.117 25.8894ZM8.94387 29.8734C7.46236 29.8734 6.06507 29.8133 4.67294 29.8889C2.98519 29.9817 1.7529 31.3309 1.72024 32.9792C1.68759 34.5862 2.90785 36.0816 4.54576 36.2122C5.98601 36.3273 7.44346 36.2362 8.94387 36.2362C8.94387 34.1084 8.94387 32.0391 8.94387 29.8734ZM8.92668 42.2553C8.92668 40.7927 8.92668 39.4125 8.92668 38.0358C8.32858 38.0358 7.80094 38.0358 7.27674 38.0358C7.27674 39.4744 7.27674 40.8562 7.27674 42.2553C7.84563 42.2553 8.35264 42.2553 8.92668 42.2553ZM25.7526 34.985C26.5982 34.4762 26.9866 33.8541 26.9763 33.0222C26.966 32.1903 26.581 31.5647 25.7526 31.135C25.7526 32.4034 25.7526 33.61 25.7526 34.985Z" fill="#1B76FE"/>
<path d="M34.4374 33.9021C33.6674 33.9021 32.8957 33.9056 32.1257 33.9004C31.5895 33.897 31.153 33.6048 31.2492 33.096C31.3128 32.7592 31.7734 32.2607 32.0776 32.2435C33.6708 32.1576 35.2744 32.1559 36.8676 32.2418C37.1787 32.259 37.6685 32.7574 37.7132 33.084C37.7888 33.6323 37.3179 33.909 36.749 33.9056C35.979 33.9021 35.2073 33.9039 34.4374 33.9039C34.4374 33.9039 34.4374 33.9039 34.4374 33.9021Z" fill="#1B76FE"/>
<path d="M33.1879 39.4816C33.1776 40.1966 32.4867 40.6624 31.9986 40.2602C31.2338 39.6294 30.548 38.8921 29.9087 38.1341C29.7763 37.9777 29.8949 37.4535 30.0702 37.2404C30.2215 37.0547 30.756 36.9121 30.8831 37.0238C31.6737 37.7096 32.4007 38.4693 33.1381 39.2152C33.2016 39.2805 33.1793 39.4335 33.1879 39.4816Z" fill="#1B76FE"/>
<path d="M30.5292 29.0727C30.3659 28.9489 30.0342 28.8166 29.9242 28.5811C29.8142 28.3474 29.8108 27.9108 29.962 27.7338C30.5309 27.0669 31.1462 26.4241 31.8234 25.8707C32.0262 25.7057 32.559 25.7383 32.8047 25.8947C33.011 26.0253 33.1966 26.62 33.0866 26.7472C32.4111 27.5361 31.6515 28.2546 30.9125 28.9885C30.8609 29.04 30.7492 29.028 30.5292 29.0727Z" fill="#1B76FE"/>
<path d="M28.8653 8.43026C28.8653 7.37323 28.8533 6.31448 28.8687 5.25745C28.8842 4.26573 29.4651 3.91339 30.3279 4.39979C32.1669 5.4362 33.9956 6.49151 35.8139 7.56401C36.6801 8.0762 36.6887 8.7637 35.8294 9.27245C34.0128 10.3467 32.1824 11.4003 30.3434 12.4367C29.4411 12.9454 28.879 12.5845 28.8687 11.5189C28.8567 10.4876 28.8653 9.45979 28.8653 8.43026ZM30.6441 6.55854C30.6441 7.86651 30.6441 9.01635 30.6441 10.2831C31.7338 9.65229 32.7289 9.07651 33.8581 8.42339C32.722 7.7651 31.7286 7.18761 30.6441 6.55854Z" fill="#1B76FE"/>
<path d="M14.174 9.02324C15.487 9.02324 16.8018 9.01637 18.1149 9.02668C18.6924 9.03012 19.2475 9.14012 19.251 9.87918C19.2527 10.62 18.7027 10.7368 18.1218 10.7386C15.4664 10.7454 12.8093 10.742 10.154 10.742C9.55242 10.742 9.00416 10.5701 9.00245 9.88433C9.00073 9.19855 9.54383 9.0198 10.1471 9.02152C11.4894 9.02324 12.8317 9.02152 14.174 9.02324Z" fill="#1B76FE"/>
<path d="M12.531 15.5512C11.7008 15.5512 10.869 15.5581 10.0389 15.5495C9.4528 15.5443 8.98704 15.3054 9.00079 14.666C9.01282 14.0782 9.46139 13.8428 10.0114 13.841C11.6733 13.8342 13.3336 13.8324 14.9956 13.8428C15.5713 13.8462 16.0354 14.0524 16.0216 14.7245C16.0079 15.3467 15.561 15.5374 15.0231 15.5478C14.1929 15.5615 13.3628 15.5512 12.531 15.5512Z" fill="#1B76FE"/>
<path d="M18.3967 13.501C18.8041 14.0407 19.22 14.3518 19.2028 14.6371C19.1839 14.9413 18.8041 15.3847 18.4964 15.4758C17.9756 15.6288 17.57 15.2197 17.6113 14.711C17.6371 14.3793 18.0049 14.075 18.3967 13.501Z" fill="#1B76FE"/>
<path d="M21.9408 38.0014C21.6263 38.218 21.2602 38.6562 21.0093 38.5995C20.6725 38.5222 20.4233 38.0598 20.1362 37.7625C20.4198 37.4944 20.6931 37.0286 20.9904 37.0131C21.3049 36.9977 21.6418 37.4084 21.9683 37.6336C21.9598 37.7573 21.9494 37.8794 21.9408 38.0014Z" fill="#1B76FE"/>
</g>
<defs>
<clipPath id="clip0_14371_710">
<rect fill="white" height="44" width="44"/>
</clipPath>
</defs>
</svg>