<?xml version="1.0" encoding="utf-8"?>
<svg xmlns="http://www.w3.org/2000/svg" fill="none" height="41" viewBox="0 0 45 41" width="45">
<g clip-path="url(#clip0_527_269)">
<path d="M16.6965 33.1171H4.87955C1.7664 33.1171 0.00175587 31.3609 0 28.258C0 20.4764 0 12.6942 0 4.91145C0 1.88663 1.78747 0.128649 4.86024 0.126914C9.22181 0.126914 13.584 0.126914 17.9467 0.126914C18.1802 0.126914 18.4735 0.0488223 18.635 0.161624C18.93 0.376816 19.3373 0.699599 19.3373 0.982472C19.3373 1.26534 18.9581 1.61417 18.6631 1.82242C18.4875 1.94737 18.1521 1.86407 17.8888 1.86407H4.80053C2.78831 1.86407 1.76289 2.86887 1.76113 4.8403C1.76113 11.0878 1.76113 17.3353 1.76113 23.5828V24.3429H43.2171V23.4283C43.2171 17.2653 43.2171 11.1034 43.2171 4.94269C43.2171 2.8411 42.2268 1.86059 40.1092 1.85886H27.021C26.7594 1.85886 26.4275 1.93175 26.2484 1.80506C25.9745 1.6107 25.6374 1.27402 25.6356 0.996358C25.6339 0.718692 25.9657 0.37508 26.2379 0.177242C26.4135 0.0488216 26.7471 0.121708 27.0105 0.121708C31.4025 0.121708 35.7921 0.121708 40.1795 0.121708C43.1785 0.121708 44.9712 1.90571 44.9712 4.88716C44.9712 12.6977 44.9712 20.507 44.9712 28.3153C44.9712 31.3418 43.1838 33.0998 40.1127 33.1015H28.3046C28.3046 34.1567 28.2326 35.1389 28.3221 36.1038C28.4362 37.3186 29.5178 38.2314 30.7803 38.2956C31.423 38.3286 32.0674 38.3165 32.7118 38.2956C33.3562 38.2748 33.8724 38.457 33.8777 39.1633C33.8829 39.8697 33.3509 40.0449 32.7258 40.0432C30.2676 40.0432 27.8094 40.0432 25.3512 40.0432C21.0476 40.0432 16.7474 40.0432 12.4403 40.0328C12.0707 40.0473 11.7048 39.9557 11.3868 39.769C11.1919 39.6302 11.0479 39.1425 11.1497 38.9481C11.2388 38.7952 11.3586 38.662 11.5017 38.5567C11.6448 38.4513 11.8083 38.376 11.982 38.3355C12.6422 38.2436 13.3253 38.3164 13.9978 38.3008C15.6009 38.2644 16.6684 37.1971 16.6965 35.604C16.7088 34.8144 16.6965 34.0109 16.6965 33.1171ZM43.2101 26.2223H1.76113C1.76113 26.9425 1.76113 27.6107 1.76113 28.2649C1.76113 30.4116 2.74091 31.3765 4.92169 31.3783H40.039C40.2146 31.3783 40.3902 31.3783 40.5658 31.3783C42.0758 31.3245 43.1627 30.278 43.2101 28.7994C43.2399 27.9595 43.2154 27.123 43.2154 26.2189L43.2101 26.2223ZM17.6043 38.2817H27.3704C26.1413 36.673 26.6839 34.8421 26.4697 33.1709H18.4945C18.3383 34.8907 18.8194 36.6557 17.6043 38.2817Z" fill="#1971F5"/>
<path d="M14.9705 6.53753H19.3391C23.2886 6.53753 27.2376 6.53753 31.1859 6.53753C32.2623 6.53753 32.545 6.87421 32.3536 7.91719C31.8092 10.8986 31.2684 13.8835 30.6855 16.8598C30.5924 17.3283 30.2904 17.7587 30.02 18.3522C30.5468 19.8378 30.2974 21.0335 29.1825 21.9307C28.7099 22.2976 28.1377 22.5176 27.5384 22.5627C26.9392 22.6078 26.3398 22.476 25.8165 22.184C24.5048 21.4222 24.18 20.3566 24.6014 18.1197C24.4633 18.0945 24.3237 18.0777 24.1835 18.0694C23.339 18.0694 22.4944 18.0694 21.5497 18.0694C22.1327 19.843 21.9325 21.3406 20.1995 22.2812C19.1653 22.8418 17.815 22.6283 16.923 21.8595C15.8888 20.9606 15.6641 19.777 16.1715 18.3887C15.8958 17.7657 15.5886 17.285 15.4692 16.7643C14.6685 13.3039 13.8801 9.84003 13.1532 6.36399C12.9916 5.59868 12.6563 5.37134 11.9241 5.44249C11.3978 5.48133 10.8692 5.47669 10.3438 5.42861C9.8065 5.39043 9.38685 5.06417 9.52205 4.53834C9.60282 4.21729 10.0488 3.78864 10.3578 3.76087C11.4346 3.65849 12.5189 3.65849 13.5957 3.76087C13.9345 3.79558 14.3507 4.25026 14.5052 4.60775C14.7598 5.17697 14.8177 5.82254 14.9705 6.53753ZM15.3621 8.31287C15.9275 10.8223 16.4911 13.2085 16.988 15.6016C17.1109 16.1916 17.3637 16.3287 17.9221 16.3253C20.8158 16.3027 23.7165 16.3253 26.6066 16.3097C27.3897 16.3097 28.3836 16.5196 28.8892 16.1361C29.3493 15.789 29.2931 14.7582 29.4336 14.0224C29.7847 12.136 30.1359 10.2444 30.4871 8.30939L15.3621 8.31287ZM18.8984 20.8235C19.0592 20.8262 19.2189 20.796 19.3673 20.7346C19.5157 20.6732 19.6496 20.582 19.7605 20.4669C19.8714 20.3517 19.9569 20.215 20.0116 20.0655C20.0663 19.916 20.089 19.7569 20.0783 19.5983C20.0379 18.8781 19.606 18.4928 18.9054 18.439C18.5855 18.439 18.2787 18.5646 18.0524 18.7882C17.8262 19.0118 17.6991 19.315 17.6991 19.6312C17.6991 19.9474 17.8262 20.2507 18.0524 20.4743C18.2787 20.6979 18.5855 20.8235 18.9054 20.8235H18.8984ZM27.3177 18.4286C27.1567 18.4283 26.9971 18.46 26.8487 18.5218C26.7002 18.5836 26.5658 18.6742 26.4535 18.7883C26.3411 18.9024 26.2531 19.0377 26.1947 19.1861C26.1362 19.3344 26.1085 19.4929 26.1132 19.6521C26.1518 20.3462 26.5346 20.7766 27.2651 20.8183C27.4256 20.8297 27.5868 20.8083 27.7385 20.7554C27.8903 20.7025 28.0293 20.6192 28.147 20.5107C28.2647 20.4022 28.3584 20.2708 28.4224 20.1249C28.4864 19.979 28.5192 19.8215 28.5188 19.6625C28.524 19.3429 28.4016 19.0342 28.1781 18.8033C27.9546 18.5723 27.648 18.4377 27.3248 18.4286H27.3177Z" fill="#1971F5"/>
<path d="M22.6629 0C22.8947 0.3332 23.339 0.694163 23.3003 0.989183C23.2617 1.2842 22.7929 1.74235 22.4575 1.79789C22.2275 1.83607 21.6955 1.32759 21.6744 1.03604C21.6498 0.709785 22.0484 0.354024 22.2644 0.0104121L22.6629 0Z" fill="#1971F5"/>
<path d="M23.4935 28.9625C23.1546 29.1864 22.7823 29.6185 22.4821 29.5751C22.1818 29.5317 21.7288 29.0545 21.6797 28.7265C21.6445 28.4991 22.1678 27.9837 22.4628 27.9664C22.7946 27.949 23.1476 28.3499 23.4917 28.5668L23.4935 28.9625Z" fill="#1971F5"/>
</g>
<defs>
<clipPath id="clip0_527_269">
<rect fill="white" height="40.0603" width="44.98"/>
</clipPath>
</defs>
</svg>