<?xml version="1.0" encoding="utf-8"?>
<svg xmlns="http://www.w3.org/2000/svg" fill="none" height="52" viewBox="0 0 44 52" width="44">
<g clip-path="url(#clip0_527_589)">
<path d="M13.3052 6.15657C13.3052 4.50625 13.346 3.01634 13.2932 1.53859C13.2525 0.442424 13.6935 0.002503 14.7673 0.00736403C19.5995 0.0284285 24.4325 0.0284285 29.2662 0.00736403C30.2753 0.00736403 30.7163 0.427843 30.6828 1.46567C30.6372 2.96044 30.6828 4.45521 30.6828 6.08366C31.1789 6.10796 31.5984 6.14685 32.0203 6.14685C34.9349 6.14685 37.8503 6.14685 40.7666 6.14685C42.9238 6.14685 42.9238 6.14685 42.9238 8.28084C42.9238 14.6002 42.9118 20.9195 42.9525 27.2389C42.9525 27.7007 43.3504 28.1552 43.5446 28.6194C43.7195 29.0423 44.0072 29.4749 44.0096 29.9051C44.0359 42.0796 33.178 52.4652 21.1934 51.7628C10.4457 51.1333 2.30103 43.9195 0.304406 33.2301C0.0963025 32.1986 -0.00173635 31.1475 0.0119828 30.0947C0.0287611 29.5527 0.491365 29.0326 0.702293 28.4833C0.895181 28.0747 1.01373 27.6342 1.05224 27.183C1.07621 20.8247 1.06902 14.4641 1.06902 8.10341C1.06902 6.19789 1.12175 6.159 3.04407 6.14685L13.3052 6.15657ZM15.3282 28.352H28.6191V2.10247H15.3282V28.352ZM13.1878 28.3788V8.2298H3.13035V28.3788H13.1878ZM30.7811 8.19092V28.3642H40.8792V8.19092H30.7811ZM5.05028 40.3345L14.3191 38.0206C14.1274 35.5901 13.9284 33.1134 13.7295 30.6027H2.011C2.14768 34.0639 3.19722 37.4245 5.05028 40.3345ZM30.2465 30.559C30.0476 33.162 29.8559 35.663 29.6785 38.0182L38.9329 40.3345C40.794 37.4129 41.8401 34.0349 41.9602 30.559H30.2465ZM28.2883 30.6173H15.6925C15.8915 32.9044 16.0545 35.0821 16.3061 37.2502C16.3349 37.4932 16.8478 37.8724 17.1403 37.8772C20.3713 37.921 23.6031 37.921 26.8358 37.8772C27.1306 37.8772 27.6459 37.4981 27.6747 37.2477C27.9263 35.0797 28.0893 32.902 28.2883 30.6173ZM16.7304 39.9286C17.3416 42.906 18.0391 45.6403 19.6283 48.0319C21.1886 50.3774 22.8066 50.3677 24.3717 48.0028C25.9369 45.6379 26.6488 42.8865 27.248 39.9286H16.7304ZM17.6724 49.3153C16.5938 46.2261 15.5583 43.2535 14.4461 40.0793L6.23675 42.082C9.50373 45.9806 13.2165 48.3382 17.6724 49.3153ZM37.7537 42.0456L29.5395 40.1012C28.3889 43.3751 27.3535 46.316 26.2965 49.3177C30.7667 48.3309 34.5035 45.9806 37.7537 42.0456Z" fill="#1971F5"/>
<path d="M21.9556 10.1087C20.9202 10.1087 19.8823 10.0868 18.8397 10.1087C17.9001 10.1354 17.4159 9.75381 17.4327 8.76216C17.4519 7.62954 17.4327 6.49692 17.4327 5.35944C17.4327 4.5598 17.8354 4.14418 18.6024 4.14418C20.877 4.13203 23.1565 4.08828 25.4216 4.19523C25.8051 4.21224 26.4259 4.88306 26.4762 5.31083C26.6224 6.50665 26.5385 7.74135 26.5218 8.95661C26.5218 9.75382 26.0711 10.1135 25.2969 10.1087C24.1968 10.0941 23.0726 10.1087 21.9556 10.1087ZM19.4533 8.03544H24.5107V6.24658H19.4533V8.03544Z" fill="#1971F5"/>
<path d="M21.9125 26.3491C20.8339 26.3491 19.7553 26.3491 18.6791 26.3491C17.8546 26.3491 17.4327 25.9189 17.4399 25.0633C17.4399 23.9307 17.4399 22.7957 17.4399 21.6606C17.4399 20.8172 17.821 20.3579 18.6551 20.3554C20.8922 20.3457 23.1293 20.3457 25.3665 20.3554C26.1335 20.3554 26.5433 20.7783 26.5433 21.5707C26.5433 22.7446 26.5433 23.9186 26.5433 25.0925C26.5433 25.9578 26.0831 26.3418 25.2706 26.3442C24.1488 26.3539 23.0295 26.3491 21.9125 26.3491ZM24.5347 22.4603H19.4725V24.2661H24.5347V22.4603Z" fill="#1971F5"/>
<path d="M22.0971 12.2816C23.1325 12.2816 24.1704 12.2986 25.213 12.2816C26.1047 12.2598 26.5553 12.6486 26.5481 13.5722C26.5385 14.7065 26.5385 15.8407 26.5481 16.975C26.5481 17.8354 26.1287 18.234 25.2969 18.2315C23.1062 18.2315 20.9138 18.2315 18.7198 18.2315C17.9025 18.2315 17.4423 17.8718 17.4471 16.9993C17.4471 15.8253 17.4471 14.6538 17.4471 13.4799C17.4471 12.6924 17.8426 12.2889 18.6311 12.2938C19.7841 12.2816 20.9394 12.2816 22.0971 12.2816ZM24.5227 14.3257H19.4892V16.1267H24.5227V14.3257Z" fill="#1971F5"/>
<path d="M8.20701 11.7587C8.79904 11.7587 9.42463 11.6468 9.97832 11.7975C10.3426 11.8972 10.8436 12.3711 10.8484 12.6871C10.8532 13.0031 10.369 13.6229 10.055 13.6593C8.79335 13.7687 7.52478 13.7687 6.26311 13.6593C5.95631 13.6326 5.48173 13.0347 5.48173 12.6871C5.48173 12.3395 5.9611 11.8777 6.31585 11.7927C6.91268 11.6517 7.57183 11.7611 8.20701 11.7587Z" fill="#1971F5"/>
<path d="M8.29329 17.3393C8.84698 17.3393 9.43183 17.2274 9.94476 17.3757C10.3187 17.4851 10.8316 17.925 10.8484 18.241C10.8652 18.5569 10.3858 19.2132 10.0862 19.2302C8.78614 19.3408 7.47925 19.3408 6.17922 19.2302C5.89878 19.2059 5.5033 18.574 5.47933 18.2021C5.46494 17.9396 5.95871 17.4729 6.28229 17.4C6.92946 17.2712 7.61976 17.3611 8.29329 17.3611V17.3393Z" fill="#1971F5"/>
<path d="M8.13749 24.898C7.58381 24.898 6.98218 25.0341 6.48842 24.8567C6.06657 24.706 5.76935 24.2005 5.40981 23.8529C5.75017 23.5394 6.06657 22.9949 6.4333 22.9585C7.57601 22.8394 8.72775 22.8394 9.87046 22.9585C10.2444 22.9973 10.5632 23.5491 10.9059 23.8675C10.5775 24.2077 10.3019 24.723 9.90641 24.8397C9.36471 25.0098 8.73193 24.8834 8.13749 24.8834V24.898Z" fill="#1971F5"/>
<path d="M35.8889 11.7587C36.4809 11.7587 37.1041 11.6493 37.6578 11.8C38.0125 11.8972 38.4967 12.3834 38.4967 12.6945C38.4967 13.0056 38.0173 13.6302 37.7177 13.6545C36.4561 13.7651 35.1874 13.7651 33.9258 13.6545C33.6142 13.6253 33.1252 13.025 33.13 12.6823C33.1348 12.3396 33.6358 11.8802 33.9977 11.7903C34.5945 11.6493 35.2537 11.7587 35.8889 11.7587Z" fill="#1971F5"/>
<path d="M35.7499 19.3058C35.1962 19.3058 34.6017 19.4298 34.1008 19.2645C33.6981 19.1333 33.4081 18.6496 33.0677 18.3215C33.3985 17.9934 33.7029 17.4197 34.0624 17.3833C35.2455 17.2699 36.4365 17.2707 37.6194 17.3857C37.955 17.4149 38.5374 17.9885 38.4967 18.2243C38.4412 18.4516 38.3346 18.6629 38.1854 18.8416C38.0361 19.0204 37.8482 19.1618 37.6362 19.2548C37.0538 19.4274 36.385 19.2985 35.7499 19.2985V19.3058Z" fill="#1971F5"/>
<path d="M35.8266 24.8932C35.2321 24.8932 34.5993 25.0196 34.0576 24.8495C33.6621 24.7255 33.3913 24.2054 33.0653 23.8627C33.4105 23.5467 33.734 22.9998 34.108 22.9609C35.2499 22.8418 36.4008 22.8418 37.5427 22.9609C37.9095 22.9998 38.2235 23.5467 38.559 23.8627C38.2426 24.2054 37.979 24.7279 37.6003 24.847C37.0586 25.0172 36.4258 24.8908 35.8337 24.8908L35.8266 24.8932Z" fill="#1971F5"/>
</g>
<defs>
<clipPath id="clip0_527_589">
<rect fill="white" height="51.8065" width="44"/>
</clipPath>
</defs>
</svg>