<?xml version="1.0" encoding="utf-8"?>
<svg xmlns="http://www.w3.org/2000/svg" fill="none" height="43" viewBox="0 0 41 43" width="41">
<g clip-path="url(#clip0_527_609)">
<path d="M40.9983 32.6087C40.9983 35.535 40.9983 38.4602 40.9983 41.3843C40.9983 42.6139 40.6281 42.9049 39.4221 42.741C33.8412 41.9749 28.2585 41.2182 22.6742 40.471C21.0162 40.2518 20.9062 40.1632 20.9062 38.5221C20.9062 33.5906 20.9062 28.6597 20.9062 23.7293C20.9062 22.3793 21.1063 22.1819 22.4507 22.1836C28.1451 22.1903 33.8389 22.1992 39.5322 22.2104C40.7582 22.2104 40.9967 22.4496 40.9983 23.6674C41.0006 26.6484 41.0006 29.6288 40.9983 32.6087ZM22.7509 38.6292L39.1236 40.8474V24.089C38.9217 24.0689 38.7616 24.0388 38.6015 24.0371C33.5443 24.0254 28.487 24.0237 23.4231 23.9919C22.801 23.9919 22.6975 24.2412 22.6992 24.7849C22.7159 29.1342 22.6992 33.4836 22.7109 37.8329C22.7192 38.0755 22.7409 38.3231 22.7509 38.6292Z" fill="#1971F5"/>
<path d="M30.8488 20.2799C28.0144 20.2799 25.1789 20.2799 22.3422 20.2799C21.143 20.2799 20.9045 20.0541 20.9028 18.8831C20.9028 13.8646 20.9028 8.84609 20.9028 3.82761C20.9028 2.76536 21.0946 2.51945 22.0971 2.38395C27.9571 1.58769 33.8183 0.799224 39.6806 0.0185705C40.583 -0.101873 40.9867 0.246075 40.9883 1.18955C40.9983 7.15263 40.9983 13.1191 40.9883 19.0888C40.9883 20.0005 40.6647 20.2815 39.6806 20.2849C36.7339 20.286 33.79 20.2843 30.8488 20.2799ZM39.1352 2.00757C38.9686 1.99784 38.8015 1.99784 38.6348 2.00757C33.5465 2.68674 28.4581 3.36479 23.3697 4.04173C22.846 4.11031 22.7025 4.33782 22.7025 4.85138C22.7225 9.14051 22.7125 13.4296 22.7159 17.7188C22.7159 17.9346 22.7526 18.1504 22.7743 18.3963H39.1319L39.1352 2.00757Z" fill="#1971F5"/>
<path d="M9.57407 22.1665C12.2673 22.1665 14.9605 22.1665 17.6536 22.1665C18.8763 22.1665 19.1081 22.399 19.1098 23.6403C19.1098 28.5472 19.1098 33.4486 19.1098 38.3444C19.1098 39.7111 18.8462 39.9637 17.4585 39.7898C12.4546 39.1658 7.44076 38.505 2.43022 37.8811C-0.0950644 37.5666 0.120101 37.6853 0.120101 35.1828C0.120101 31.3409 0.120101 27.4978 0.120101 23.6537C0.120101 22.4057 0.318584 22.21 1.57622 22.2083C4.24495 22.2083 6.91034 22.2083 9.5724 22.2083L9.57407 22.1665ZM17.2467 24.0719H1.98154V35.9791L17.2467 37.9262V24.0719Z" fill="#1971F5"/>
<path d="M9.54404 20.2782C6.81971 20.2782 4.09539 20.2782 1.37106 20.2782C0.266873 20.2782 0.00166795 20.0072 0 18.8914C0 14.7651 0 10.6388 0 6.51247C0 5.4519 0.230175 5.17421 1.27431 5.04541C6.7819 4.33613 12.2906 3.63186 17.8004 2.93262C18.6711 2.82221 19.0864 3.14172 19.0897 4.01996C19.1064 9.06521 19.0997 14.1105 19.0897 19.1557C19.0897 19.957 18.6611 20.2882 17.8738 20.2832C15.1017 20.2698 12.3229 20.2782 9.54404 20.2782ZM17.2467 4.8363L1.87645 6.82362V18.3845H17.2467V4.8363Z" fill="#1971F5"/>
</g>
<defs>
<clipPath id="clip0_527_609">
<rect fill="white" height="42.7826" width="41"/>
</clipPath>
</defs>
</svg>