<?xml version="1.0" encoding="utf-8"?>
<svg xmlns="http://www.w3.org/2000/svg" fill="none" height="30" viewBox="0 0 30 30" width="30">
<g clip-path="url(#clip0_12974_935)">
<path d="M21.253 14.4903C21.253 15.3342 21.2821 16.1683 21.2434 17.0121C21.1949 17.9626 20.7198 18.7094 19.915 19.1944C18.577 20.0091 17.2196 20.7947 15.8525 21.5512C14.9217 22.0653 13.9521 22.0459 13.031 21.5318C11.693 20.785 10.3647 20.0188 9.04609 19.2332C8.22195 18.7385 7.69838 17.9917 7.67899 17.0218C7.64021 15.3439 7.64021 13.6659 7.67899 11.9783C7.69838 10.989 8.23165 10.2228 9.06548 9.72814C10.3841 8.94252 11.7124 8.1763 13.0504 7.42948C13.9812 6.91543 14.9508 6.91543 15.8719 7.42948C17.2099 8.1666 18.5382 8.93283 19.8569 9.72814C20.8167 10.3101 21.2724 11.2024 21.2821 12.3178C21.2821 13.0452 21.2821 13.7726 21.2821 14.5C21.2724 14.4904 21.2627 14.4903 21.253 14.4903ZM8.50313 14.4613C8.50313 15.1693 8.51282 15.887 8.50313 16.595C8.49343 17.4873 8.87157 18.1469 9.63753 18.5833C10.8689 19.2914 12.1003 19.9994 13.3219 20.7171C14.0685 21.1536 14.8248 21.173 15.5713 20.7365C16.8318 20.0188 18.0825 19.2914 19.343 18.5542C20.0023 18.1663 20.3998 17.594 20.4192 16.8278C20.4386 15.2663 20.4386 13.695 20.4192 12.1335C20.4095 11.3867 20.0217 10.8144 19.3818 10.4362C18.1019 9.68935 16.8221 8.94252 15.5326 8.2054C14.8345 7.80774 14.117 7.80774 13.4189 8.2151C12.1584 8.93282 10.9077 9.66025 9.64723 10.3877C8.88126 10.8338 8.50313 11.4934 8.52252 12.3857C8.50313 13.0743 8.50313 13.7629 8.50313 14.4613Z" fill="#1B76FE"/>
<path d="M27.8461 2.94866C27.8267 3.69548 27.0123 4.35501 26.0912 4.15133C25.7227 4.07374 25.5094 4.16103 25.267 4.4132C23.9581 5.75167 22.6201 7.07073 21.3015 8.38979C21.1948 8.49648 21.1075 8.64197 20.9815 8.68076C20.8167 8.72926 20.5549 8.75835 20.4773 8.67106C20.3707 8.54498 20.361 8.3025 20.3997 8.12792C20.4288 7.99213 20.6034 7.88544 20.7197 7.76906C22.0674 6.4209 23.4054 5.07274 24.7628 3.73427C24.9664 3.5306 25.0537 3.36571 24.9664 3.06504C24.7822 2.45401 25.0052 1.94966 25.4803 1.5617C25.9651 1.16404 26.5275 1.14464 27.0704 1.40652C27.6037 1.66839 27.8752 2.15334 27.8461 2.94866ZM26.382 3.34631C26.7408 3.28812 26.9832 3.12324 26.9832 2.72558C26.9832 2.33762 26.7699 2.12424 26.4014 2.10484C26.0427 2.07575 25.7615 2.37642 25.7712 2.73528C25.7809 3.12324 26.0136 3.29782 26.382 3.34631Z" fill="#1B76FE"/>
<path d="M2.40472 1.14461C3.66517 1.13491 4.36326 1.98843 4.12087 2.97772C4.0433 3.29779 4.13056 3.48207 4.34387 3.69545C5.69158 5.03391 7.03929 6.38207 8.387 7.73023C8.49365 7.83692 8.63909 7.92421 8.66817 8.0503C8.70696 8.21518 8.71665 8.46736 8.6197 8.56435C8.52274 8.66134 8.27065 8.66134 8.10582 8.62254C7.97978 8.59344 7.88282 8.43826 7.78586 8.34127C6.42846 6.98341 5.07105 5.62555 3.71364 4.26769C3.51973 4.07371 3.3549 3.94762 3.04464 4.05431C2.4435 4.25799 1.93932 4.01552 1.55149 3.54996C1.16366 3.09411 1.10549 2.55097 1.34788 2.00782C1.60967 1.45498 2.05567 1.15431 2.40472 1.14461ZM3.33551 2.61886C3.27734 2.26 3.10281 2.01752 2.70529 2.01752C2.30776 2.00782 2.11385 2.2503 2.07506 2.60916C2.03628 2.95833 2.34654 3.2493 2.71498 3.2299C3.11251 3.2105 3.28703 2.97772 3.33551 2.61886Z" fill="#1B76FE"/>
<path d="M27.7588 26.3909C27.7685 27.2541 27.0608 27.9427 26.2172 27.9039C25.364 27.8554 24.6853 27.1183 24.8501 26.2551C24.9568 25.712 24.7532 25.4404 24.4235 25.1106C23.1824 23.8886 21.9511 22.6471 20.7197 21.4153C20.6519 21.3474 20.584 21.2795 20.5161 21.2116C20.2931 20.9886 20.0313 20.7461 20.361 20.4454C20.6712 20.1641 20.9136 20.3969 21.1463 20.6297C21.7087 21.2019 22.2904 21.7742 22.8625 22.3464C23.6866 23.1708 24.5011 23.9952 25.3349 24.8003C25.461 24.9263 25.7324 24.9845 25.907 24.9457C26.8668 24.7421 27.7491 25.4113 27.7588 26.3909ZM26.9056 26.4588C26.9056 26.0708 26.6438 25.7799 26.3045 25.7896C25.9263 25.7896 25.7033 26.0029 25.6743 26.3812C25.6452 26.7401 25.936 27.0504 26.2948 27.031C26.6632 27.0019 26.8668 26.7789 26.9056 26.4588Z" fill="#1B76FE"/>
<path d="M2.69539 24.8292C3.37409 25.2366 3.71344 24.5964 4.13036 24.1891C5.31324 23.0252 6.47673 21.8419 7.64992 20.6683C7.73718 20.5811 7.82444 20.4259 7.93109 20.4065C8.1347 20.358 8.3674 20.3871 8.58071 20.3871C8.57101 20.5908 8.59041 20.8041 8.53223 20.9981C8.49345 21.1242 8.33832 21.2115 8.24136 21.3085C6.92274 22.6275 5.59442 23.9563 4.2661 25.2754C4.06249 25.479 3.95583 25.6439 4.0431 25.9737C4.2661 26.8563 3.64557 27.6807 2.76326 27.7874C1.93912 27.8844 1.16346 27.2346 1.09559 26.3908C1.03741 25.576 1.7549 24.8292 2.69539 24.8292ZM3.22865 26.2647C3.18987 25.9155 2.97656 25.7021 2.60812 25.673C2.25908 25.6536 1.96821 25.9737 1.99729 26.3326C2.02638 26.7205 2.27847 26.9339 2.63721 26.9145C2.98626 26.9145 3.21896 26.6817 3.22865 26.2647Z" fill="#1B76FE"/>
<path d="M1.72563 22.3855C0.785143 22.3758 0.174311 21.8908 0.0385701 21.2313C-0.116562 20.5329 0.232485 19.8443 0.872405 19.5436C1.52202 19.243 2.2492 19.437 2.68551 20.0092C3.03456 20.4651 4.03322 20.5329 4.45014 20.1256C4.96401 19.6115 5.47789 19.0975 5.99176 18.5834C6.20507 18.3701 6.45716 18.244 6.69955 18.4962C6.92256 18.7289 6.8256 18.9714 6.61229 19.1751C6.01115 19.7764 5.41002 20.3875 4.78949 20.9791C4.65375 21.1052 4.43075 21.1731 4.23683 21.2022C3.95565 21.2507 3.65509 21.241 3.36421 21.241C3.08304 21.241 2.91821 21.3477 2.77277 21.6192C2.51099 22.143 2.04559 22.3855 1.72563 22.3855ZM2.07468 21.0567C2.11346 20.5814 1.88076 20.2808 1.52202 20.2808C1.15358 20.2808 0.901492 20.4747 0.882101 20.853C0.853013 21.2313 1.05662 21.4737 1.43476 21.5125C1.8032 21.5513 2.0262 21.3574 2.07468 21.0567Z" fill="#1B76FE"/>
<path d="M27.3032 22.3852C26.9057 22.3658 26.4888 22.1039 26.1688 21.619C26.0622 21.4638 25.8295 21.2601 25.6841 21.2795C24.6272 21.4153 23.9291 20.8721 23.2989 20.1253C23.008 19.7859 22.659 19.4852 22.3487 19.1651C22.1451 18.9614 22.0481 18.719 22.2905 18.4959C22.5329 18.2728 22.7656 18.3698 22.9692 18.5735C23.4831 19.0875 23.997 19.6016 24.5109 20.1156C24.9569 20.5618 25.9168 20.4939 26.3046 19.9992C26.7409 19.4367 27.4875 19.2621 28.1274 19.5725C28.7382 19.8634 29.097 20.5812 28.9515 21.2213C28.7964 21.9002 28.1953 22.3852 27.3032 22.3852ZM28.1177 20.9691C28.1468 20.62 27.885 20.2999 27.5456 20.2902C27.1675 20.2805 26.9348 20.4648 26.8766 20.843C26.8282 21.2019 27.0996 21.522 27.4584 21.5317C27.8559 21.5317 28.0498 21.3086 28.1177 20.9691Z" fill="#1B76FE"/>
<path d="M9.71496 1.61967C9.47256 1.97854 9.27865 2.38589 8.97808 2.68656C8.58055 3.07452 8.46421 4.02502 8.85204 4.43238C9.35622 4.95613 9.87979 5.46047 10.3937 5.97452C10.6167 6.1976 10.7815 6.44007 10.5003 6.72135C10.2288 6.98322 9.99613 6.79894 9.79252 6.59526C9.21078 6.01332 8.59995 5.46047 8.05698 4.83004C7.86307 4.60696 7.80489 4.219 7.7855 3.90864C7.75642 3.39459 7.75642 2.95813 7.17467 2.63807C6.56384 2.3083 6.44749 1.46449 6.76745 0.824355C7.05832 0.232716 7.7855 -0.116448 8.38664 0.0290368C9.10413 0.203619 9.59861 0.824355 9.57922 1.53238C9.6277 1.57118 9.67617 1.59058 9.71496 1.61967ZM8.73569 1.51298C8.6969 1.14442 8.50299 0.892248 8.12485 0.882549C7.75642 0.87285 7.51402 1.08623 7.47524 1.46449C7.43646 1.81365 7.73702 2.12402 8.09577 2.11432C8.49329 2.11432 8.67751 1.88155 8.73569 1.51298Z" fill="#1B76FE"/>
<path d="M3.51 8.642C3.14156 8.55471 2.88947 8.6323 2.66647 8.99117C2.32712 9.54401 1.60963 9.73799 0.998797 9.52461C0.368573 9.30154 -0.019257 8.7196 0.00983028 8.03097C0.0389175 7.38114 0.484922 6.84769 1.13454 6.68281C1.75507 6.51792 2.45316 6.7701 2.74403 7.36174C2.92825 7.7303 3.16095 7.80789 3.5003 7.76909C4.25657 7.6721 4.82862 7.95338 5.31341 8.53532C5.70124 9.00087 6.16663 9.40823 6.60294 9.84468C6.80655 10.0484 6.91321 10.2908 6.6902 10.5236C6.44781 10.7758 6.19572 10.6691 5.97272 10.446C5.5558 10.0193 5.1098 9.6216 4.71227 9.17545C4.39231 8.77779 4.01418 8.57411 3.51 8.642ZM2.08472 8.14736C2.08472 7.74 1.89081 7.52662 1.50298 7.51692C1.12484 7.50722 0.90184 7.7012 0.872752 8.08916C0.843665 8.44802 1.12484 8.73899 1.48358 8.7293C1.87141 8.7196 2.06533 8.51592 2.08472 8.14736Z" fill="#1B76FE"/>
<path d="M20.8747 29.0001C20.2348 29.0001 19.6822 28.6121 19.4785 28.0011C19.2749 27.3998 19.4688 26.7499 19.9633 26.3426C20.1282 26.2068 20.3609 26.0031 20.3609 25.8285C20.3609 25.3824 20.4869 24.8974 20.07 24.5192C19.5561 24.0536 19.081 23.5396 18.5962 23.0546C18.3732 22.8315 18.2084 22.5697 18.4993 22.3078C18.7611 22.0653 18.9938 22.2302 19.2071 22.4436C19.7791 23.0158 20.3318 23.5978 20.9232 24.1506C21.282 24.4901 21.2335 24.9071 21.2238 25.3242C21.2141 25.7606 21.2529 26.0904 21.728 26.3329C22.3097 26.6335 22.5036 27.3707 22.3 27.9817C22.0867 28.6024 21.534 29.0001 20.8747 29.0001ZM21.4953 27.5258C21.4856 27.1379 21.2432 26.9148 20.865 26.9245C20.4772 26.9342 20.2736 27.1379 20.2639 27.5258C20.2542 27.8847 20.5451 28.1563 20.9135 28.1369C21.3013 28.1078 21.4662 27.8653 21.4953 27.5258Z" fill="#1B76FE"/>
<path d="M20.8845 0.00993515C21.5439 0.00993515 22.1159 0.465788 22.3098 1.11562C22.494 1.75575 22.2323 2.46378 21.6311 2.77415C21.3208 2.92933 21.1754 3.11361 21.2336 3.44338C21.3693 4.27749 21.03 4.89823 20.3901 5.42198C19.9537 5.78084 19.5853 6.21729 19.1878 6.61495C18.9842 6.81863 18.7515 6.99321 18.48 6.72164C18.2279 6.45977 18.3539 6.22699 18.5673 6.00392C19.0617 5.51897 19.5271 5.00492 20.0507 4.53937C20.3804 4.2484 20.3222 3.87983 20.3804 3.52097C20.4482 3.12331 20.3028 2.89054 19.9634 2.65776C19.4399 2.3086 19.275 1.61027 19.4884 1.00893C19.7017 0.407594 20.264 0.000236149 20.8845 0.00993515ZM20.8845 0.882845C20.5452 0.882845 20.264 1.14472 20.2543 1.48418C20.2446 1.85274 20.5161 2.13402 20.8845 2.12432C21.2724 2.10492 21.476 1.87214 21.476 1.50358C21.4857 1.12532 21.2627 0.911942 20.8845 0.882845Z" fill="#1B76FE"/>
<path d="M28.9808 8.11812C28.9808 8.74856 28.5833 9.3111 27.9821 9.52448C27.3616 9.73786 26.6829 9.53418 26.2951 9.01043C25.946 8.54488 24.9667 8.47699 24.5401 8.89404C24.0263 9.38869 23.5318 9.89304 23.0276 10.3974C22.8046 10.6205 22.5525 10.7853 22.281 10.5138C22.0192 10.2519 22.1938 10.0191 22.3974 9.80575C22.9791 9.22381 23.5221 8.59337 24.162 8.07933C24.4529 7.84655 24.928 7.81745 25.3255 7.76896C25.7327 7.73016 26.0624 7.75926 26.2951 7.27431C26.5665 6.69237 27.3228 6.49839 27.9336 6.69237C28.5542 6.89605 28.9808 7.46829 28.9808 8.11812ZM28.1276 8.13752C28.0791 7.77866 27.9142 7.53618 27.5167 7.52648C27.1289 7.51679 26.9059 7.71077 26.8768 8.09873C26.8477 8.45759 27.1289 8.74856 27.4973 8.74856C27.8852 8.72916 28.0694 8.49638 28.1276 8.13752Z" fill="#1B76FE"/>
<path d="M8.0961 29C7.4077 29 6.82596 28.5442 6.65143 27.8652C6.4963 27.2639 6.76778 26.5559 7.34953 26.2552C7.67918 26.0806 7.80523 25.8672 7.75675 25.5375C7.6404 24.6937 7.99914 24.0923 8.62937 23.5783C9.05598 23.2291 9.41472 22.8121 9.80255 22.4241C10.0159 22.201 10.2583 22.0749 10.5103 22.3271C10.7721 22.5793 10.617 22.8218 10.4037 23.0351C9.88982 23.5492 9.37594 24.0535 8.86207 24.5773C8.44515 25.004 8.52271 25.9739 8.98811 26.3425C9.50199 26.7305 9.7056 27.3997 9.50199 27.9816C9.28868 28.6218 8.76511 29 8.0961 29ZM7.95067 26.9244C7.73736 26.9244 7.48527 27.1572 7.47557 27.5064C7.46588 27.8652 7.75675 28.1465 8.11549 28.1368C8.50332 28.1174 8.71663 27.8846 8.71663 27.5161C8.71663 27.1475 8.50332 26.9244 7.95067 26.9244Z" fill="#1B76FE"/>
<path d="M17.7915 14.335C17.3552 13.9471 16.9189 13.5688 16.4923 13.1808C16.2596 12.9675 16.1044 12.7056 16.3856 12.434C16.6474 12.1819 16.8801 12.337 17.0934 12.5601C17.5879 13.0742 18.0824 13.5785 18.5865 14.0732C18.858 14.3447 18.858 14.5872 18.5865 14.8588C18.0727 15.3728 17.5685 15.8966 17.0643 16.4106C16.8607 16.624 16.6183 16.7113 16.3856 16.4882C16.1529 16.2651 16.2208 16.013 16.4438 15.819C16.8995 15.4116 17.3649 15.014 17.8303 14.6066C17.8012 14.5193 17.8012 14.4223 17.7915 14.335Z" fill="#1B76FE"/>
<path d="M11.0825 14.4032C11.5285 14.9367 11.8581 15.3537 12.1975 15.7611C12.4011 16.0036 12.5465 16.2848 12.2556 16.5176C11.9648 16.7504 11.7224 16.5467 11.5285 16.3042C11.1406 15.829 10.7625 15.3537 10.3553 14.8882C10.0935 14.5875 10.0838 14.3353 10.3747 14.0541C10.8789 13.5594 11.3733 13.0454 11.8678 12.5313C12.0714 12.3276 12.2944 12.2015 12.5368 12.4246C12.8083 12.6671 12.7017 12.929 12.4787 13.1326C12.0326 13.5497 11.5673 13.9571 11.0825 14.4032Z" fill="#1B76FE"/>
<path d="M12.9536 16.4496C13.0409 16.2459 13.0797 16.1295 13.1378 16.0131C13.7681 14.8492 14.408 13.6951 15.0479 12.5312C15.1933 12.2596 15.3679 11.988 15.7169 12.1626C16.0853 12.3566 15.9593 12.6573 15.8042 12.9482C15.1449 14.1315 14.5146 15.3342 13.8359 16.5078C13.7487 16.6629 13.4869 16.7793 13.3027 16.789C13.1863 16.8084 13.0603 16.566 12.9536 16.4496Z" fill="#1B76FE"/>
</g>
<defs>
<clipPath id="clip0_12974_935">
<rect fill="white" height="29" width="29"/>
</clipPath>
</defs>
</svg>