<?xml version="1.0" encoding="utf-8"?>
<svg xmlns="http://www.w3.org/2000/svg" fill="none" height="45" viewBox="0 0 45 45" width="45">
<g clip-path="url(#clip0_527_528)">
<path d="M42.3178 37.2977C42.912 37.2977 43.3799 37.3242 43.8421 37.2977C44.7023 37.2393 45.0117 37.6015 44.974 38.4674C44.8249 41.9536 41.7462 44.8815 38.092 44.9041C32.4325 44.9286 26.773 44.9041 21.1135 44.9041C16.3973 44.9041 11.681 44.9173 6.96479 44.9041C3.5955 44.889 0.877055 42.6403 0.162072 39.354C-0.228434 37.5468 -0.0473336 37.3204 1.77314 37.2996C2.04857 37.2996 2.324 37.2657 2.68998 37.243V36.0866C2.68998 29.265 2.68998 22.4428 2.68998 15.62C2.68998 14.2806 2.77864 14.1938 4.15013 14.1919H11.5678V13.1657C11.5678 10.1793 11.5678 7.193 11.5678 4.20667C11.5678 1.55426 13.1336 0.0110972 15.8068 0.00732422C20.2703 0.00732422 24.735 0.00732422 29.201 0.00732422C31.8722 0.00732422 33.4248 1.55425 33.4361 4.20855C33.4361 5.4046 33.3777 6.60252 33.4644 7.7929C33.5336 8.32372 33.7418 8.82681 34.0681 9.25117C34.4813 9.76665 34.9452 10.2394 35.4528 10.6623C36.0188 11.1829 36.0188 11.6583 35.4528 12.1715C35.1585 12.4337 34.902 12.7374 34.4398 13.2185C34.9812 13.2788 35.2642 13.326 35.549 13.3373C36.1357 13.36 36.7639 13.2241 37.0582 13.9957C37.1073 14.1259 37.4827 14.1844 37.7091 14.1844C38.7448 14.2051 39.7842 14.1844 40.8199 14.1938C42.2555 14.1938 42.3291 14.2711 42.3291 15.6653V37.2977H42.3178ZM30.8799 9.51151C31.6761 9.04743 32.0741 8.56826 32.0307 7.71933C31.9685 6.4667 32.0307 5.20652 32.0081 3.94633C31.9703 2.39186 31.095 1.43541 29.5556 1.42409C24.8431 1.38761 20.13 1.38761 15.4163 1.42409C13.9222 1.43729 13.0129 2.38809 13.0091 3.88785C12.9903 12.9996 12.9903 22.1108 13.0091 31.2213C13.0091 32.7834 13.9995 33.7304 15.5767 33.736C20.1948 33.7549 24.8136 33.7549 29.433 33.736C31.012 33.736 31.9817 32.7928 32.0024 31.2251C32.0364 28.6821 32.0024 26.1316 32.0194 23.5904C32.0194 22.8113 31.5761 22.4453 30.7818 22.1171C30.7818 22.5755 30.7818 22.9094 30.7818 23.249C30.7686 24.3318 30.6064 24.496 29.5179 24.5035C28.6067 24.5035 27.6936 24.4941 26.7844 24.5035C26.1128 24.5129 25.809 24.1922 25.7977 23.5338C25.7883 23.0924 25.7411 22.6529 25.6902 21.9284C25.1846 22.4152 24.8884 22.683 24.6205 22.9679C24.147 23.481 23.6962 23.5339 23.183 23.0056C22.4888 22.2793 21.77 21.5757 21.0513 20.872C20.6212 20.4494 20.5344 20.0363 20.989 19.5722C21.321 19.2326 21.6361 18.8723 21.9587 18.5233L21.8549 18.2856C21.4927 18.2856 21.1286 18.2611 20.7683 18.2856C19.9288 18.3535 19.5421 18.0045 19.5742 17.1537C19.6062 16.2444 19.5987 15.3314 19.5742 14.4202C19.5553 13.6882 19.8213 13.2883 20.6117 13.3241C21.0443 13.3206 21.4763 13.2935 21.9059 13.243L22.136 12.794C21.8273 12.6328 21.5281 12.4539 21.2399 12.2582C20.5344 11.7206 20.5155 11.1792 21.2041 10.5604C21.8927 9.94163 22.5246 9.29833 23.1415 8.63428C23.6716 8.06834 24.1395 8.09663 24.6507 8.64749C24.928 8.94744 25.2619 9.19457 25.7958 9.66431C25.7958 8.95687 25.8109 8.55882 25.7958 8.15511C25.7619 7.40051 26.1109 7.0666 26.873 7.10433C27.5314 7.13829 28.1936 7.10433 28.852 7.10433C30.7007 7.10433 30.6988 7.10434 30.7856 8.90594C30.7932 9.07007 30.8309 9.21721 30.8799 9.51151ZM40.8539 37.2977V15.7011H37.1016C37.0054 16.5104 37.1582 17.4518 36.7583 17.9253C36.381 18.3611 35.4245 18.3026 34.5794 18.4912C34.8133 18.761 34.9963 18.993 35.2 19.2043C36.1565 20.1853 36.1584 20.2325 35.1604 21.2304C34.8058 21.5851 34.4737 21.9681 34.087 22.2888C33.5871 22.7019 33.4135 23.183 33.4248 23.8395C33.4645 26.1957 33.4456 28.5557 33.4399 30.9101C33.4399 33.5927 31.9137 35.1283 29.2443 35.132C24.7507 35.1421 20.2571 35.1421 15.7634 35.132C13.0959 35.132 11.5773 33.5908 11.5735 30.9063C11.5735 26.1624 11.5735 21.4172 11.5735 16.6708V15.6954H4.15768V37.2977H5.22732C8.05707 37.2977 10.8868 37.4147 13.7166 37.2562C15.5521 37.1525 16.8802 37.5675 17.6009 39.3314C17.8254 39.886 18.263 39.9747 18.8177 39.9671C20.7664 39.937 22.7265 39.8238 24.6658 39.9935C26.4089 40.1482 27.6201 39.6804 28.3068 38.0373C28.5803 37.3845 29.1123 37.2713 29.7688 37.2827C32.7551 37.3072 35.7396 37.294 38.7259 37.294L40.8539 37.2977ZM1.57129 38.6881C1.78258 41.448 4.1407 43.4911 7.15533 43.5006C17.3952 43.5307 27.6364 43.5307 37.8789 43.5006C40.3822 43.5006 42.1857 42.3064 43.1894 39.9898C43.3535 39.6125 43.395 39.1805 43.5138 38.6862C39.4767 38.6862 35.5905 38.7786 31.6949 38.6409C30.0819 38.5825 28.9972 38.9711 28.3634 40.4633C28.0502 41.2028 27.4654 41.3726 26.69 41.3575C24.3979 41.3103 22.0926 41.2009 19.8137 41.3839C17.9272 41.5348 16.5973 41.0613 15.8521 39.2729C15.6408 38.7636 15.2371 38.6711 14.7202 38.6749C11.4848 38.6956 8.24761 38.6862 5.01226 38.6862L1.57129 38.6881ZM27.2503 22.9868H29.2991C29.3689 22.1133 29.2481 21.3153 30.4027 20.806C31.6459 20.257 31.9986 21.2285 32.6476 21.6172L34.1455 20.1419C33.555 19.5156 32.8249 19.0723 33.3192 17.8687C33.8135 16.6651 34.7114 16.9688 35.4924 16.784V14.6881C34.2643 14.9616 33.6059 14.5334 33.1909 13.3675C32.7985 12.2582 33.838 12.0715 34.1021 11.4301L32.5929 9.99068C32.0005 10.6151 31.4968 11.2207 30.3291 10.7604C29.1198 10.2831 29.4594 9.34927 29.267 8.57203H27.2918C27.0503 9.31153 27.5333 10.1359 26.4844 10.6472C25.3091 11.2131 24.5979 10.8509 23.9508 9.94729L22.4322 11.3659C22.8095 12.0847 23.7244 12.3356 23.3585 13.426C22.9472 14.6598 22.1869 14.9012 21.0626 14.7164V16.85C21.9775 16.8745 22.7605 16.7481 23.2491 17.88C23.7641 19.0647 22.9793 19.5213 22.4945 20.125L23.9244 21.6945C24.6036 20.9229 25.1431 20.3306 26.3391 20.889C27.4239 21.387 27.139 22.1529 27.2503 22.9868Z" fill="#1971F5"/>
<path d="M20.0875 25.545C20.0629 28.2465 20.4534 28.0521 17.5633 28.0597C14.7958 28.0597 15.1448 28.1748 15.1486 25.6242C15.1486 22.8624 14.7713 23.0718 17.718 23.0661C20.4516 23.0605 20.061 22.9454 20.0875 25.545ZM18.7065 24.5791H16.6106V26.5618H18.6669C18.682 26.3599 18.7028 26.2109 18.7047 26.06C18.7103 25.594 18.7065 25.13 18.7065 24.5791Z" fill="#1971F5"/>
<path d="M16.5295 8.50252C16.5295 9.49482 16.588 10.3419 16.5012 11.1719C16.4673 11.4832 16.0956 11.7586 15.8787 12.051C15.6334 11.7548 15.2052 11.4738 15.1788 11.1587C15.0882 10.0985 15.0882 9.03259 15.1788 7.97242C15.2052 7.67058 15.6466 7.18764 15.9334 7.165C17.0566 7.07916 18.1846 7.07538 19.3083 7.15368C19.5762 7.17066 19.8196 7.55739 20.0724 7.77433C19.812 8.01769 19.5687 8.43838 19.2838 8.46857C18.4179 8.56101 17.5388 8.50252 16.5295 8.50252Z" fill="#1971F5"/>
<path d="M22.5097 4.94445C21.5382 4.94445 20.5629 4.99539 19.5989 4.91615C19.2932 4.88974 19.0159 4.5181 18.7254 4.30493C19.014 4.05969 19.2914 3.60881 19.5951 3.59938C21.5344 3.53523 23.4762 3.53523 25.4206 3.59938C25.7187 3.60881 26.0016 4.0578 26.2922 4.30304C26.0016 4.5181 25.7262 4.88974 25.4206 4.91615C24.4566 4.99916 23.4813 4.94445 22.5097 4.94445Z" fill="#1971F5"/>
<path d="M22.4965 31.5838C21.8061 31.5838 21.1062 31.6555 20.4346 31.5517C20.1327 31.5046 19.8856 31.1084 19.6158 30.8707C19.895 30.6424 20.1648 30.2293 20.4553 30.2142C21.8316 30.1434 23.2105 30.1434 24.5868 30.2142C24.8678 30.2293 25.1301 30.6556 25.3998 30.8933C25.1206 31.1235 24.8641 31.5046 24.5585 31.5517C23.885 31.6536 23.1851 31.5838 22.4965 31.5838Z" fill="#1971F5"/>
<path d="M7.80822 19.1897C7.24227 19.0651 6.29902 19.467 6.31223 18.4351C6.32543 17.505 7.19888 17.8087 7.77426 17.7465C7.80559 17.7427 7.83726 17.7427 7.86859 17.7465C8.47227 17.8106 9.40608 17.4899 9.37779 18.4784C9.34949 19.467 8.41567 19.0821 7.80822 19.1897Z" fill="#1971F5"/>
<path d="M7.89689 24.5207C7.29132 24.4037 6.33864 24.7942 6.31978 23.8208C6.29714 22.7549 7.28755 23.1096 7.90444 23.0831C8.48737 23.0586 9.3627 22.8549 9.38534 23.7547C9.40987 24.764 8.47416 24.4188 7.89689 24.5207Z" fill="#1971F5"/>
<path d="M37.2056 24.5152C36.6056 24.4171 35.6511 24.7812 35.6379 23.8172C35.6247 22.7815 36.6113 23.0946 37.2376 23.0833C37.8036 23.072 38.6865 22.8343 38.7034 23.7568C38.7223 24.7755 37.7923 24.4152 37.2056 24.5152Z" fill="#1971F5"/>
<path d="M8.02705 33.7533C8.49491 33.8174 9.3759 33.493 9.38911 34.423C9.40231 35.3531 8.52886 35.0795 7.94971 35.121C7.64032 35.1437 7.29132 35.2078 7.02532 35.0984C6.75933 34.989 6.52351 34.6739 6.27072 34.4513C6.50842 34.2193 6.71028 33.9023 6.99514 33.7778C7.28 33.6533 7.61202 33.7533 8.02705 33.7533Z" fill="#1971F5"/>
<path d="M37.1735 35.1098C36.8622 35.1098 36.5132 35.1984 36.251 35.0852C35.9888 34.972 35.6379 34.6608 35.636 34.4363C35.6341 34.2118 35.9944 33.8364 36.2435 33.7911C36.7944 33.6836 37.3606 33.6798 37.913 33.7798C38.2205 33.8402 38.4676 34.208 38.7431 34.4363C38.4676 34.6664 38.2205 34.9456 37.9111 35.1041C37.7225 35.2041 37.4225 35.123 37.1735 35.123V35.1098Z" fill="#1971F5"/>
<path d="M7.69315 29.8103C7.20266 29.7292 6.32733 30.08 6.30846 29.1274C6.2896 28.1747 7.17248 28.4897 7.73466 28.4256C7.98179 28.3973 8.27042 28.3426 8.47416 28.4388C8.80711 28.6319 9.1227 28.8534 9.41741 29.1009C9.13372 29.361 8.82539 29.5929 8.4968 29.7933C8.31004 29.9008 8.01575 29.8103 7.69315 29.8103Z" fill="#1971F5"/>
<path d="M37.0358 29.8086C36.5434 29.7388 35.653 30.0727 35.6341 29.1521C35.6134 28.1466 36.5434 28.4862 37.1433 28.4258C37.4206 28.3975 37.7394 28.3428 37.9734 28.4485C38.2658 28.5786 38.4884 28.8616 38.7431 29.0786C38.4808 29.3219 38.2545 29.6313 37.9488 29.7879C37.7206 29.9011 37.3942 29.8086 37.0358 29.8086Z" fill="#1971F5"/>
<path d="M24.9357 15.7352C24.9458 14.8461 25.3085 13.9974 25.9443 13.3758C26.58 12.7542 27.4367 12.4106 28.3258 12.4206C29.2149 12.4306 30.0636 12.7934 30.6852 13.4292C31.3068 14.0649 31.6504 14.9216 31.6404 15.8107C31.6354 16.2509 31.5438 16.6858 31.3707 17.0907C31.1977 17.4955 30.9466 17.8623 30.6318 18.1701C30.317 18.4778 29.9447 18.7206 29.5361 18.8845C29.1275 19.0484 28.6906 19.1302 28.2503 19.1252C27.8101 19.1203 27.3751 19.0287 26.9703 18.8556C26.5655 18.6826 26.1987 18.4315 25.8909 18.1167C25.5831 17.8019 25.3404 17.4296 25.1765 17.0209C25.0126 16.6123 24.9308 16.1754 24.9357 15.7352ZM28.2711 17.7406C28.529 17.743 28.7848 17.6944 29.0238 17.5973C29.2628 17.5003 29.4801 17.3569 29.6633 17.1753C29.8464 16.9937 29.9918 16.7776 30.0909 16.5395C30.19 16.3013 30.2408 16.0459 30.2406 15.788C30.2341 15.266 30.0214 14.7677 29.6489 14.4019C29.2764 14.0361 28.7743 13.8325 28.2522 13.8355C27.7478 13.8535 27.2687 14.0606 26.91 14.4157C26.5514 14.7709 26.3396 15.248 26.3167 15.7522C26.3126 16.2749 26.5162 16.7778 26.8826 17.1506C27.249 17.5234 27.7484 17.7356 28.2711 17.7406Z" fill="#1971F5"/>
</g>
<defs>
<clipPath id="clip0_527_528">
<rect fill="white" height="44.91" width="44.9798"/>
</clipPath>
</defs>
</svg>