<?xml version="1.0" encoding="utf-8"?>
<svg xmlns="http://www.w3.org/2000/svg" fill="none" height="49" viewBox="0 0 44 49" width="44">
<g clip-path="url(#clip0_527_585)">
<path d="M43.8465 13.3615C44.4185 15.3956 43.3418 16.4695 41.5544 17.0932C40.6502 17.4092 40.4441 17.9998 40.4588 18.9085C40.5177 22.4502 40.5009 25.994 40.4588 29.5378C40.4588 30.1965 40.6291 30.5703 41.2411 30.9152C44.4248 32.6892 43.6741 31.605 43.878 35.2892C43.9664 36.8732 43.3923 37.7013 41.9855 38.3745C39.0415 39.7871 40.1749 39.88 37.3045 38.327C36.6085 37.9491 36.1017 37.914 35.3993 38.3167C32.6425 39.88 29.852 41.3876 27.0531 42.8807C26.4433 43.207 26.027 43.5518 26.1826 44.2932C26.6347 46.4534 25.6737 47.6718 23.6591 48.5619C22.4122 49.1133 21.5668 49.1298 20.3072 48.5722C18.2506 47.6636 17.3149 46.4038 17.7522 44.2189C17.8826 43.5746 17.542 43.2503 16.9868 42.953C14.1269 41.4289 11.2825 39.8773 8.45345 38.2981C7.83732 37.9553 7.3873 37.9264 6.73752 38.2713C3.6926 39.8903 4.97113 39.8243 1.77901 38.2857C0.462628 37.6497 0.134583 36.8257 0.016823 35.4234C-0.172433 33.127 0.437393 31.5802 2.75053 30.8677C3.34984 30.6839 3.4655 30.2482 3.46129 29.6679C3.43816 25.9506 3.43185 22.2333 3.46129 18.5161C3.46129 17.8697 3.28675 17.4484 2.67272 17.2584C0.437394 16.5687 -0.126172 15.0859 0.00210155 12.8617C0.0904212 11.3087 0.536228 10.462 1.93672 9.78877C4.86599 8.38241 3.80405 8.21926 6.60925 9.84453C7.88779 10.5859 8.83406 10.6045 10.0895 9.84453C12.3437 8.46501 14.7157 7.25897 17.0478 6.01782C17.584 5.73489 17.8616 5.39828 17.7417 4.81591C17.2812 2.57522 18.2653 1.30515 20.3535 0.390293C21.5857 -0.150775 22.4037 -0.109471 23.6129 0.417141C25.6716 1.31135 26.6115 2.57728 26.1721 4.76634C26.0438 5.40447 26.3613 5.74109 26.927 6.04054C29.6039 7.46342 32.2472 8.95033 34.9325 10.3567C35.2795 10.5384 35.8073 10.4021 36.251 10.3794C36.3894 10.3521 36.5161 10.2844 36.6148 10.1853C38.6419 8.48361 40.6102 8.59512 42.7004 10.1688C43.4449 10.7263 43.9622 11.1642 43.8339 12.1265C43.8098 12.538 43.814 12.9506 43.8465 13.3615ZM38.7997 24.061C38.7997 22.1693 38.8312 20.2756 38.7723 18.3839C38.7723 18.0308 38.4485 17.6281 38.1646 17.3513C37.8807 17.0746 37.4286 16.961 37.0837 16.7318C36.558 16.3725 36.1101 16.3766 35.5655 16.7524C34.6507 17.3844 33.6729 17.9399 32.7266 18.5181C32.222 18.8238 31.6289 18.9126 31.4018 18.3116C31.2883 18.0081 31.5469 17.3761 31.8413 17.1593C32.7897 16.4592 33.839 15.8913 34.8379 15.2573C35.7695 14.6646 35.7127 12.7027 34.7475 12.174C32.4238 10.8998 30.0161 9.7578 27.7976 8.32872C26.2267 7.31886 24.8998 7.2156 23.514 8.40719C23.1745 8.69011 22.9418 9.07715 22.8538 9.50585C22.7528 10.3546 22.8958 11.2344 22.778 12.079C22.7339 12.3929 22.2334 12.6428 21.9369 12.9237C21.672 12.6531 21.3061 12.4218 21.1694 12.0976C21.0567 11.7324 21.048 11.3439 21.1441 10.9742C21.4953 9.2477 20.7467 8.22752 19.1275 7.6183C18.5703 7.41179 18.1602 7.27137 17.5882 7.59146C14.7914 9.15891 11.9652 10.6727 9.1537 12.2174C8.2642 12.7068 8.21162 14.6956 9.07169 15.2511C9.98012 15.8335 10.9033 16.3931 11.8243 16.959C12.3542 17.2832 12.9073 17.6508 12.493 18.3426C12.0788 19.0344 11.4858 18.7143 10.96 18.386C10.0726 17.8346 9.21258 17.2316 8.28312 16.7607C7.92774 16.5831 7.39152 16.6182 6.97936 16.7194C6.53797 16.8382 6.132 17.0591 5.79545 17.3637C5.50736 17.626 5.18562 18.037 5.18142 18.3839C5.13936 22.17 5.13936 25.9561 5.18142 29.7422C5.18142 30.1139 5.53049 30.5683 5.84381 30.8347C6.98987 31.8404 8.14223 31.8673 9.33454 30.812C9.88824 30.3334 10.5203 29.9501 11.204 29.6782C11.5573 29.5357 12.0556 29.7401 12.4888 29.7876C12.369 30.2007 12.369 30.7252 12.1019 30.9937C11.6471 31.425 11.1105 31.7646 10.5227 31.9932C8.84037 32.6768 8.20952 33.8353 8.48289 35.6093C8.57542 36.2144 8.69318 36.5861 9.26515 36.8856C11.6077 38.1246 14.0092 39.2811 16.2235 40.7143C17.7754 41.7221 19.0097 41.7015 20.446 40.6586C20.9296 40.3075 21.1568 40.0204 21.1399 39.4381C21.1021 38.0957 21.0726 36.7534 21.1673 35.4131C21.1925 35.0682 21.6867 34.7543 21.9664 34.426C22.2481 34.7502 22.7255 35.0455 22.7738 35.4069C22.9076 36.2966 22.9133 37.2004 22.7907 38.0916C22.5362 39.7272 23.1461 40.6895 24.7001 41.3215C25.4297 41.6189 25.9176 41.6788 26.6073 41.2843C28.9058 39.9709 31.2021 38.6347 33.5951 37.503C35.0671 36.8112 35.6475 35.9439 35.473 34.3496C35.3888 33.5731 35.1996 33.1105 34.5098 32.7346C33.5539 32.2312 32.6399 31.6546 31.7761 31.0102C31.4944 30.8037 31.4965 30.2275 31.3682 29.8207C31.8014 29.7649 32.2997 29.5481 32.653 29.6865C33.3374 29.9558 33.9691 30.3394 34.5204 30.8202C35.7421 31.9044 36.9281 31.8735 38.1099 30.8533C38.4232 30.5827 38.7408 30.1325 38.7639 29.7525C38.8333 27.8485 38.7954 25.9547 38.7954 24.061H38.7997ZM24.6075 4.502C24.4898 3.89691 24.576 3.10596 24.2206 2.78174C23.6087 2.22415 22.7192 1.64797 21.9516 1.65623C21.1841 1.66449 20.3619 2.29849 19.6806 2.80858C19.4324 2.99651 19.4703 3.61812 19.4703 4.04767C19.485 4.71265 19.3441 5.5924 19.71 5.98891C20.2588 6.58573 21.182 7.14952 21.9558 7.15365C22.7297 7.15778 23.5855 6.56302 24.2311 6.02608C24.5486 5.74935 24.4898 5.03068 24.6033 4.502H24.6075ZM19.3504 44.6422C19.4682 45.175 19.403 45.9247 19.7436 46.2179C20.3745 46.7611 21.2493 47.3455 22.0168 47.3373C22.7844 47.329 23.6066 46.695 24.2858 46.1828C24.5318 45.9949 24.4961 45.3712 24.4856 44.9438C24.4666 44.2808 24.5991 43.4052 24.2311 43.0087C23.6823 42.414 22.7591 41.8481 21.9895 41.844C21.2198 41.8398 20.343 42.4346 19.7121 42.986C19.382 43.2896 19.464 44.0433 19.3483 44.6422H19.3504ZM1.68649 13.4028C1.80635 13.9273 1.74957 14.6708 2.09233 14.9661C2.72319 15.5113 3.59587 16.1081 4.36131 16.0999C5.12675 16.0916 5.95106 15.4431 6.62818 14.9248C6.87631 14.7369 6.83846 14.1111 6.82374 13.6857C6.80482 13.0228 6.9394 12.1472 6.5714 11.7527C6.02046 11.158 5.09941 10.588 4.32556 10.588C3.55171 10.588 2.68534 11.1869 2.06079 11.7403C1.71803 12.0419 1.80004 12.7977 1.68228 13.4028H1.68649ZM42.2715 13.3883C42.1558 12.7936 42.2378 12.0377 41.8993 11.7362C41.2684 11.1827 40.402 10.5859 39.6345 10.588C38.8669 10.5901 38.0426 11.2323 37.3613 11.7445C37.1111 11.9324 37.13 12.5499 37.1363 12.9691C37.1363 13.6341 37.0017 14.5118 37.3655 14.9124C37.9102 15.5134 38.8375 16.0895 39.605 16.0978C40.3726 16.1061 41.2432 15.5092 41.8761 14.964C42.2126 14.6708 42.1495 13.9232 42.2673 13.3883H42.2715ZM6.94361 34.8906C6.82585 34.2835 6.90576 33.5297 6.5693 33.2385C5.93844 32.6871 5.07207 32.0924 4.30453 32.0924C3.53699 32.0924 2.71268 32.7284 2.02925 33.2344C1.77901 33.4202 1.80004 34.0377 1.80635 34.4569C1.80635 35.1219 1.66966 35.9975 2.03345 36.3982C2.57809 36.9991 3.50545 37.5753 4.26878 37.5856C5.03212 37.596 5.9048 37.0012 6.53776 36.4581C6.88473 36.1545 6.82164 35.4131 6.9415 34.8906H6.94361ZM37.0143 34.6407C37.1321 35.2995 37.0375 36.0863 37.3886 36.4209C37.9922 36.9867 38.8775 37.5774 39.645 37.5774C40.4125 37.5774 41.2327 36.9392 41.9161 36.4333C42.1684 36.2454 42.1537 35.6341 42.1516 35.2169C42.1516 34.5499 42.2925 33.6701 41.9287 33.2695C41.3862 32.6685 40.4567 32.0944 39.6934 32.0841C38.93 32.0738 38.0679 32.6727 37.416 33.2013C37.0858 33.4657 37.1279 34.1678 37.0101 34.6407H37.0143Z" fill="#1971F5"/>
<path d="M30.3883 23.7782C30.3883 25.1536 30.4534 26.5331 30.3525 27.9085C30.3236 28.1637 30.2408 28.4101 30.1094 28.632C29.9779 28.8539 29.8007 29.0464 29.5892 29.1972C27.3034 30.5251 24.9629 31.7869 22.6224 33.0012C22.4099 33.0882 22.1811 33.1308 21.9509 33.1262C21.7206 33.1215 21.4938 33.0698 21.285 32.9743C18.9719 31.7724 16.6924 30.4961 14.3898 29.2571C14.1197 29.139 13.8937 28.9414 13.743 28.6917C13.5923 28.442 13.5244 28.1524 13.5487 27.8631C13.5781 25.1096 13.5781 22.3595 13.5487 19.6128C13.5487 18.9933 13.7484 18.6092 14.3225 18.3056C16.5655 17.1161 18.7974 15.8997 21.018 14.6565C21.6656 14.293 22.2145 14.26 22.8727 14.6296C25.1206 15.8894 27.4085 17.0789 29.6376 18.3675C29.8354 18.5061 30.0013 18.684 30.1244 18.8896C30.2476 19.0953 30.3253 19.3241 30.3525 19.5612C30.4366 20.9552 30.3883 22.3677 30.3883 23.7782ZM15.2478 20.6186C15.2478 22.9873 15.2478 25.1516 15.2625 27.3158C15.2665 27.4442 15.2986 27.5703 15.3567 27.6854C15.4147 27.8005 15.4974 27.9019 15.5989 27.9829C17.3779 28.9865 19.1738 29.9489 21.1273 31.0083C21.1273 28.6024 21.1273 26.3824 21.1105 24.1603C21.09 24.0495 21.0456 23.9443 20.9803 23.8517C20.915 23.7591 20.8304 23.6812 20.732 23.6233C18.9761 22.6383 17.2055 21.6842 15.2499 20.6186H15.2478ZM22.818 31.0042C24.7652 29.9468 26.5358 28.9969 28.2854 28.0138C28.3925 27.9417 28.4825 27.8477 28.5492 27.7383C28.616 27.6289 28.658 27.5066 28.6723 27.3798C28.6997 25.1887 28.6892 22.9997 28.6892 20.6227C26.7293 21.6945 24.904 22.6775 23.1019 23.7018C22.9274 23.8009 22.8306 24.1644 22.8285 24.406C22.8201 26.5331 22.8285 28.6623 22.8285 31.0042H22.818ZM16.1541 19.206C18.0466 20.2386 19.7521 21.1906 21.4785 22.0972C21.6254 22.1675 21.7856 22.2069 21.9489 22.2129C22.1122 22.219 22.275 22.1915 22.4269 22.1323C24.1849 21.2174 25.9134 20.2489 27.7933 19.2184C25.8777 18.1714 24.0881 17.1842 22.2818 16.2239C22.1763 16.1812 22.0629 16.1605 21.9488 16.1634C21.8347 16.1662 21.7225 16.1925 21.6194 16.2404C19.853 17.1822 18.0887 18.1548 16.1646 19.206H16.1541Z" fill="#1971F5"/>
</g>
<defs>
<clipPath id="clip0_527_585">
<rect fill="white" height="48.9811" width="44"/>
</clipPath>
</defs>
</svg>