<svg xmlns="http://www.w3.org/2000/svg" width="42" height="42" viewBox="0 0 42 42" fill="none"><rect y="0.503906" width="41.5" height="41.5" rx="8" fill="#E2F1FE"></rect><path d="M20.75 12.1039C20.1149 12.1039 19.6 12.6188 19.6 13.2539V29.2539C19.6 29.889 20.1149 30.4039 20.75 30.4039C21.3851 30.4039 21.9 29.889 21.9 29.2539V13.2539C21.9 12.6188 21.3851 12.1039 20.75 12.1039Z" fill="#6F6C90" stroke="#6F6C90" stroke-width="0.3" stroke-linecap="round"></path><path d="M12.75 20.1039C12.1149 20.1039 11.6 20.6188 11.6 21.2539C11.6 21.889 12.1149 22.4039 12.75 22.4039H28.75C29.3851 22.4039 29.9 21.889 29.9 21.2539C29.9 20.6188 29.3851 20.1039 28.75 20.1039H12.75Z" fill="#6F6C90" stroke="#6F6C90" stroke-width="0.3" stroke-linecap="round"></path></svg>