<svg width="18" color="#083792" height="18" viewBox="0 0 18 18" fill="none" xmlns="http://www.w3.org/2000/svg"><g clip-path="url(#clip0_527_838)"><path d="M0.00140404 5.28096C-0.0112641 4.52694 0.221689 3.88144 0.788939 3.35996C1.20276 2.97872 1.58422 2.56225 1.98889 2.17185C2.65538 1.52846 3.33242 1.52494 3.9975 2.17185C4.68486 2.84413 5.36518 3.52533 6.03847 4.21546C6.70918 4.90818 6.70355 5.55438 6.03355 6.24709C5.65069 6.64454 5.25938 7.03565 4.86033 7.41336C4.65624 7.60645 4.63653 7.78192 4.76181 8.03279C5.62465 9.76352 6.92876 11.1137 8.43697 12.2758C8.9254 12.6521 9.49265 12.929 10.0177 13.2539C10.2084 13.3716 10.3604 13.3356 10.5145 13.1756C10.9058 12.7712 11.3042 12.3723 11.7053 11.9777C12.4176 11.2772 13.077 11.273 13.7857 11.9706C14.4543 12.6283 15.118 13.2919 15.7767 13.9614C16.4693 14.6661 16.4629 15.3405 15.769 16.0487C15.4171 16.4088 15.0413 16.7534 14.7063 17.1262C14.0426 17.8717 13.2143 18.0754 12.2578 17.9676C10.9023 17.8146 9.68126 17.284 8.51227 16.6286C5.06373 14.695 2.47239 11.9509 0.80935 8.35202C0.353297 7.38588 0.0140722 6.37464 0.00140404 5.28096Z" fill="#000000"></path><path d="M18 8.42887L16.6671 8.65296C15.7085 4.59463 13.2101 2.16484 9.11615 1.32414C9.1436 1.11273 9.17316 0.887233 9.20412 0.658912C9.23509 0.430591 9.26606 0.220591 9.29632 0.00213623C13.1995 0.389013 17.2266 3.69614 18 8.42887Z" fill="#000000"></path><path d="M14.3368 8.66917L12.9996 8.89679C12.4802 6.69885 11.1254 5.39305 8.92328 4.93711C8.98592 4.48752 9.04644 4.05131 9.10626 3.61652C11.3492 3.73068 13.968 5.86026 14.3368 8.66917Z" fill="#000000"></path></g><defs><clipPath id="clip0_527_838"><rect width="18" height="18" fill="white"></rect></clipPath></defs></svg>